<svg width="252" height="84" viewBox="0 0 252 84" fill="none" xmlns="http://www.w3.org/2000/svg">
<g clip-path="url(#clip0_221_2334)">
<path d="M6.00076 47.9997C9.31546 47.9997 12.0015 45.3136 12.0015 41.9989C12.0015 38.6842 14.6876 35.9982 18.0023 35.9982C21.317 35.9982 24.003 33.3121 24.003 29.9974V17.998C24.003 14.6833 26.6891 11.9973 30.0038 11.9973C33.3185 11.9973 36.0045 14.6833 36.0045 17.998V65.9977C36.0045 69.3124 33.3185 71.9985 30.0038 71.9985H18.0044C14.6897 71.9985 12.0036 74.6845 12.0036 77.9992C12.0036 81.3139 14.6897 84 18.0044 84H30.0038C33.3185 84 36.0045 81.3139 36.0045 77.9992C36.0045 74.6845 38.6906 71.9985 42.0053 71.9985C45.32 71.9985 48.006 74.6845 48.006 77.9992C48.006 81.3139 50.6921 84 54.0068 84C57.3215 84 60.0076 81.3139 60.0076 77.9992C60.0076 74.6845 57.3215 71.9985 54.0068 71.9985C50.6921 71.9985 48.006 69.3124 48.006 65.9977V6.00076C48.006 2.68605 45.32 0 42.0053 0H30.0059C26.6912 0 24.0051 2.68605 24.0051 6.00076C24.0051 9.31546 21.3191 12.0015 18.0044 12.0015C14.6897 12.0015 12.0036 14.6876 12.0036 18.0023V30.0017C12.0036 33.3164 9.31758 36.0024 6.00287 36.0024C2.68817 36.0024 0.00211667 38.6885 0.00211667 42.0032H0C0 45.3179 2.68605 48.0039 6.00076 48.0039V47.9997Z" fill="white"/>
<path d="M65.9999 47.9997C69.3146 47.9997 72.0007 45.3136 72.0007 41.9989C72.0007 38.6842 74.6868 35.9982 78.0015 35.9982C81.3162 35.9982 84.0022 33.3121 84.0022 29.9974V17.998C84.0022 14.6833 86.6883 11.9973 90.003 11.9973C93.3177 11.9973 96.0037 14.6833 96.0037 17.998V65.9977C96.0037 69.3124 93.3177 71.9985 90.003 71.9985H78.0036C74.6889 71.9985 72.0028 74.6845 72.0028 77.9992C72.0028 81.3139 74.6889 84 78.0036 84H90.003C93.3177 84 96.0037 81.3139 96.0037 77.9992C96.0037 74.6845 98.6898 71.9985 102.004 71.9985C105.319 71.9985 108.005 74.6845 108.005 77.9992C108.005 81.3139 110.691 84 114.006 84C117.321 84 120.007 81.3139 120.007 77.9992C120.007 74.6845 117.321 71.9985 114.006 71.9985C110.691 71.9985 108.005 69.3124 108.005 65.9977V6.00076C108.001 2.68605 105.315 0 102 0H90.0008C86.6861 0 84.0001 2.68605 84.0001 6.00076C84.0001 9.31546 81.314 12.0015 77.9993 12.0015C74.6846 12.0015 71.9986 14.6876 71.9986 18.0023V30.0017C71.9986 33.3164 69.3125 36.0024 65.9978 36.0024C62.6831 36.0024 59.9971 38.6885 59.9971 42.0032C59.9971 45.3179 62.6831 48.0039 65.9978 48.0039L65.9999 47.9997Z" fill="white"/>
<path d="M131.999 30.0007C131.999 26.6871 129.313 24.001 126 24.001C122.686 24.001 120 26.6871 120 30.0007C120 33.3142 122.686 36.0004 126 36.0004C129.313 36.0004 131.999 33.3142 131.999 30.0007Z" fill="white"/>
<path d="M131.999 53.9997C131.999 50.6862 129.313 48 126 48C122.686 48 120 50.6862 120 53.9997C120 57.3132 122.686 59.9994 126 59.9994C129.313 59.9994 131.999 57.3132 131.999 53.9997Z" fill="white"/>
<path d="M179.999 18.0003C179.999 14.6856 177.313 11.9996 173.998 11.9996C170.684 11.9996 167.998 9.31351 167.998 5.9988C167.998 2.6841 165.311 -0.00195312 161.997 -0.00195312H149.997C146.683 -0.00195312 143.997 2.6841 143.997 5.9988C143.997 9.31351 141.311 11.9996 137.996 11.9996C134.681 11.9996 131.995 14.6856 131.995 18.0003V54.0006C131.995 57.3153 134.681 60.0014 137.996 60.0014C141.311 60.0014 143.997 62.6874 143.997 66.0021C143.997 69.3168 146.683 72.0029 149.997 72.0029C153.312 72.0029 155.998 74.6889 155.998 78.0036C155.998 81.3183 158.684 84.0044 161.999 84.0044H173.998C177.313 84.0044 179.999 81.3183 179.999 78.0036C179.999 74.6889 182.685 72.0029 186 72.0029C189.315 72.0029 192.001 69.3168 192.001 66.0021V29.9997C192.001 26.685 189.315 23.999 186 23.999C182.685 23.999 179.999 21.3129 179.999 17.9982V18.0003ZM173.998 72.0008H161.999C158.684 72.0008 155.998 69.3147 155.998 66C155.998 62.6853 153.312 59.9993 149.997 59.9993C146.683 59.9993 143.997 57.3132 143.997 53.9985V18.0003C143.997 14.6856 146.683 11.9996 149.997 11.9996H161.997C165.311 11.9996 167.998 14.6856 167.998 18.0003C167.998 21.315 170.684 24.0011 173.998 24.0011C177.313 24.0011 179.999 26.6871 179.999 30.0018V66.0021C179.999 69.3168 177.313 72.0029 173.998 72.0029V72.0008Z" fill="white"/>
<path d="M192.001 18.0003C192.001 14.6856 194.687 11.9996 198.002 11.9996C201.316 11.9996 204.002 9.31351 204.002 5.9988C204.002 2.6841 206.689 -0.00195312 210.003 -0.00195312H234.004C237.319 -0.00195312 240.005 2.6841 240.005 5.9988C240.005 9.31351 242.691 11.9996 246.006 11.9996C249.32 11.9996 252.006 14.6856 252.006 18.0003V29.9997C252.006 33.3144 249.32 36.0005 246.006 36.0005C242.691 36.0005 240.005 38.6865 240.005 42.0012V54.0006C240.005 57.3153 237.319 60.0014 234.004 60.0014C230.689 60.0014 228.003 62.6874 228.003 66.0021V78.0015C228.003 81.3162 225.317 84.0023 222.003 84.0023C218.688 84.0023 216.002 81.3162 216.002 78.0015V66.0021C216.002 62.6874 218.688 60.0014 222.003 60.0014C225.317 60.0014 228.003 57.3153 228.003 54.0006V42.0012C228.003 38.6865 230.689 36.0005 234.004 36.0005C237.319 36.0005 240.005 33.3144 240.005 29.9997V18.0003C240.005 14.6856 237.319 11.9996 234.004 11.9996H210.003C206.689 11.9996 204.002 14.6856 204.002 18.0003C204.002 21.315 201.316 24.0011 198.002 24.0011C194.687 24.0011 192.001 21.315 192.001 18.0003Z" fill="white"/>
</g>
<defs>
<clipPath id="clip0_221_2334">
<rect width="252" height="84" fill="white"/>
</clipPath>
</defs>
</svg>
