<svg width="84" height="84" viewBox="0 0 84 84" fill="none" xmlns="http://www.w3.org/2000/svg">
<path d="M0 5.92V6.07C0 9.34 2.65 11.99 5.92 11.99H6.07C9.34 11.99 11.99 14.64 11.99 17.91V18.06C11.99 21.33 14.64 23.98 17.91 23.98H18.06C21.33 23.98 23.98 26.63 23.98 29.9V30.05C23.98 33.32 26.63 35.97 29.9 35.97H30.05C33.32 35.97 35.97 38.62 35.97 41.89V42.04C35.97 45.31 33.32 47.96 30.05 47.96H29.9C26.63 47.96 23.98 50.61 23.98 53.88V54.03C23.98 57.3 21.33 59.95 18.06 59.95H17.91C14.64 59.95 11.99 62.6 11.99 65.87V66.02C11.99 69.29 9.34 71.94 6.07 71.94H5.92C2.65 71.94 0 74.59 0 77.86V78.01C0 81.28 2.65 83.93 5.92 83.93H6.07C9.34 83.93 11.99 81.28 11.99 78.01V77.86C11.99 74.59 14.64 71.94 17.91 71.94H18.06C21.33 71.94 23.98 69.29 23.98 66.02V65.87C23.98 62.6 26.63 59.95 29.9 59.95H30.05C33.32 59.95 35.97 57.3 35.97 54.03V53.88C35.97 50.61 38.62 47.96 41.89 47.96H42.04C45.31 47.96 47.96 50.61 47.96 53.88V54.03C47.96 57.3 50.61 59.95 53.88 59.95H54.03C57.3 59.95 59.95 62.6 59.95 65.87V66.02C59.95 69.29 62.6 71.94 65.87 71.94H66.02C69.29 71.94 71.94 74.59 71.94 77.86V78.01C71.94 81.28 74.59 83.93 77.86 83.93H78.01C81.28 83.93 83.93 81.28 83.93 78.01C83.93 74.79 81.37 72.17 78.15 72.09H77.71C74.5 72 71.93 69.37 71.93 66.16V65.87C71.93 62.6 69.28 59.95 66.01 59.95H65.86C62.59 59.95 59.94 57.3 59.94 54.03V53.88C59.94 50.61 57.29 47.96 54.02 47.96H53.87C50.6 47.96 47.95 45.31 47.95 42.04V41.89C47.95 38.62 50.6 35.97 53.87 35.97H54.02C57.29 35.97 59.94 33.32 59.94 30.05V29.9C59.94 26.63 62.59 23.98 65.86 23.98H66.01C69.28 23.98 71.93 21.33 71.93 18.06V17.91C71.93 14.64 74.58 11.99 77.85 11.99H78C81.27 11.99 83.92 9.34 83.92 6.07V5.92C83.92 2.65 81.27 0 78 0H77.85C74.58 0 71.93 2.65 71.93 5.92V6.07C71.93 9.34 69.28 11.99 66.01 11.99H65.86C62.59 11.99 59.94 14.64 59.94 17.91V18.06C59.94 21.33 57.29 23.98 54.02 23.98H53.87C50.6 23.98 47.95 26.63 47.95 29.9V30.05C47.95 33.32 45.3 35.97 42.03 35.97H41.88C38.61 35.97 35.96 33.32 35.96 30.05V29.9C35.96 26.63 33.31 23.98 30.04 23.98H29.89C26.62 23.98 23.97 21.33 23.97 18.06V17.91C23.97 14.64 21.32 11.99 18.05 11.99H17.9C14.63 11.99 11.98 9.34 11.98 6.07V5.92C11.98 2.65 9.33 0 6.06 0H5.91C2.65 0 0 2.65 0 5.92Z" fill="black"/>
</svg>
