<svg width="192" height="84" viewBox="0 0 192 84" fill="none" xmlns="http://www.w3.org/2000/svg">
<g clip-path="url(#clip0_221_2330)">
<path d="M72.0005 42.0011V6.00076C72.0005 2.68605 69.3145 0 65.9998 0C62.6851 0 59.999 2.68605 59.999 6.00076V42.0011C59.999 45.3158 62.6851 48.0018 65.9998 48.0018C69.3145 48.0018 72.0005 50.6879 72.0005 54.0026V78.0035C72.0005 81.3182 74.6866 84.0042 78.0013 84.0042C81.316 84.0042 84.002 81.3182 84.002 78.0035V54.0026C84.002 50.6879 81.316 48.0018 78.0013 48.0018C74.6866 48.0018 72.0005 45.3158 72.0005 42.0011Z" fill="white"/>
<path d="M29.9997 60.0012C26.685 60.0012 23.999 57.3152 23.999 54.0005V29.9995C23.999 26.6848 26.685 23.9988 29.9997 23.9988C33.3144 23.9988 36.0005 26.6848 36.0005 29.9995V54.0005C36.0005 57.3152 33.3144 60.0012 29.9997 60.0012ZM59.9993 78.0014V66.002C59.9993 62.6873 57.3132 60.0012 53.9985 60.0012C50.6838 60.0012 47.9977 57.3152 47.9977 54.0005V29.9995C47.9977 26.6848 45.3117 23.9988 41.997 23.9988C38.6823 23.9988 35.9962 21.3127 35.9962 17.998V6.00076C35.9962 2.68605 33.3102 0 29.9955 0C26.6808 0 23.9947 2.68605 23.9947 6.00076V18.0002C23.9947 21.3149 21.3087 24.0009 17.994 24.0009C14.6793 24.0009 11.9932 26.687 11.9932 30.0017V54.0026C11.9932 57.3173 9.30716 60.0033 5.99246 60.0033C2.67775 60.0033 -0.00830078 62.6894 -0.00830078 66.0041V78.0035C-0.00830078 81.3182 2.67775 84.0042 5.99246 84.0042C9.30716 84.0042 11.9932 81.3182 11.9932 78.0035V66.0041C11.9932 62.6894 14.6793 60.0033 17.994 60.0033C21.3087 60.0033 23.9947 62.6894 23.9947 66.0041V78.0035C23.9947 81.3182 26.6808 84.0042 29.9955 84.0042C33.3102 84.0042 35.9962 81.3182 35.9962 78.0035V66.0041C35.9962 62.6894 38.6823 60.0033 41.997 60.0033C45.3117 60.0033 47.9977 62.6894 47.9977 66.0041V78.0035C47.9977 81.3182 50.6838 84.0042 53.9985 84.0042C57.3132 84.0042 59.9993 81.3182 59.9993 78.0035V78.0014Z" fill="white"/>
<path d="M190.244 61.758C189.158 60.6722 187.658 60.0012 186 60.0012C184.343 60.0012 182.844 59.3302 181.758 58.2444C180.673 57.1585 180.002 55.6578 180.002 54.0005V30.0017C180.002 26.687 177.315 24.0009 174.001 24.0009C172.343 24.0009 170.843 23.3299 169.757 22.2441C168.671 21.1582 168 19.6575 168 18.0002V6.00076C168 2.68605 165.314 0 162.001 0C160.344 0 158.843 0.670984 157.757 1.75683C156.672 2.84269 156.001 4.3434 156.001 6.00076V18.0002C156.001 21.3149 153.315 24.0009 150 24.0009C148.345 24.0009 146.844 24.6719 145.758 25.7577C144.672 26.8436 144.001 28.3443 144.001 30.0017V42.0011C144.001 45.3136 141.315 47.9997 138 47.9997C136.343 47.9997 134.844 48.6728 133.759 49.7586C132.673 50.8445 132 52.3431 132 54.0005C132 55.6578 132.673 57.1585 133.759 58.2444C134.844 59.3302 136.343 60.0012 138 60.0012C139.658 60.0012 141.159 60.6722 142.244 61.758C143.33 62.8439 144.001 64.3446 144.001 65.9998C144.001 69.3145 141.315 72.0006 138 72.0006H114.002C110.687 72.0006 108.001 69.3145 108.001 65.9998V54.0005C108.001 50.6879 110.687 47.9997 114.002 47.9997C115.659 47.9997 117.158 47.3287 118.243 46.2429C119.329 45.157 120 43.6563 120 42.0011C120 40.3458 120.671 38.843 121.757 37.7571C122.843 36.6713 124.344 36.0003 126.001 36.0003C127.658 36.0003 129.157 35.3293 130.243 34.2435C131.329 33.1576 132 31.659 132 30.0017V18.0002C132 14.6876 129.314 12.0015 126.001 12.0015C124.344 12.0015 122.843 11.3305 121.757 10.2426C120.671 9.15671 120 7.65599 120 6.00076C120 4.34552 119.329 2.84269 118.243 1.75683C117.158 0.670984 115.659 0 114.002 0H102C98.6876 0 96.0015 2.68605 96.0015 6.00076C96.0015 7.65599 95.3305 9.15671 94.2426 10.2426C93.1567 11.3305 91.656 12.0015 90.0008 12.0015C88.3455 12.0015 86.8427 12.6725 85.7568 13.7583C84.671 14.8442 84 16.3428 84 18.0002V30.0017C84 33.3143 86.6861 36.0003 90.0008 36.0003C91.656 36.0003 93.1567 35.3293 94.2426 34.2435C95.3305 33.1576 96.0015 31.659 96.0015 30.0017V18.0002C96.0015 14.6876 98.6876 12.0015 102 12.0015H114.002C117.314 12.0015 120 14.6876 120 18.0002V30.0017C120 33.3143 117.314 36.0003 114.002 36.0003C112.344 36.0003 110.844 36.6713 109.758 37.7571C108.672 38.843 108.001 40.3437 108.001 42.0011C108.001 43.6584 107.33 45.157 106.244 46.2429C105.158 47.3287 103.658 47.9997 102 47.9997C100.343 47.9997 98.8442 48.6728 97.7583 49.7586C96.6725 50.8445 96.0015 52.3431 96.0015 54.0005V65.9998C96.0015 69.3145 98.6876 72.0006 102 72.0006C103.658 72.0006 105.158 72.6716 106.244 73.7574C107.33 74.8433 108.001 76.344 108.001 78.0014C108.001 79.6587 108.672 81.1573 109.758 82.2432C110.844 83.329 112.344 84 114.002 84H138C141.315 84 144.001 81.3139 144.001 78.0014C144.001 76.344 144.672 74.8433 145.758 73.7574C146.844 72.6716 148.345 72.0006 150 72.0006H162.001C165.314 72.0006 168 74.6867 168 78.0014C168 79.6566 168.671 81.1573 169.757 82.2432C170.843 83.329 172.343 84 174.001 84C175.658 84 177.159 83.329 178.245 82.2432C179.331 81.1573 180.002 79.6566 180.002 78.0014C180.002 76.3461 180.673 74.8433 181.758 73.7574C182.844 72.6716 184.345 72.0006 186 72.0006C187.655 72.0006 189.158 71.3296 190.244 70.2438C191.33 69.1579 192.001 67.6572 192.001 65.9998C192.001 64.3425 191.33 62.8439 190.244 61.758ZM174.001 72.0006C172.343 72.0006 170.843 71.3296 169.757 70.2438C168.671 69.1579 168 67.6572 168 65.9998C168 64.3425 167.329 62.8439 166.243 61.758C165.157 60.6722 163.657 60.0012 162.001 60.0012H150C146.687 60.0012 144.001 57.3152 144.001 54.0005C144.001 52.3431 144.672 50.8445 145.758 49.7586C146.844 48.6728 148.345 47.9997 150 47.9997C151.655 47.9997 153.158 47.3287 154.244 46.2429C155.33 45.157 156.001 43.6563 156.001 42.0011V30.0017C156.001 26.687 158.687 24.0009 162.001 24.0009C163.657 24.0009 165.157 24.6719 166.243 25.7577C167.329 26.8436 168 28.3443 168 30.0017V54.0005C168 57.3152 170.686 60.0012 174.001 60.0012C175.658 60.0012 177.159 60.6722 178.245 61.758C179.331 62.8439 180.002 64.3446 180.002 65.9998C180.002 69.3145 177.315 72.0006 174.001 72.0006Z" fill="white"/>
</g>
<defs>
<clipPath id="clip0_221_2330">
<rect width="192.001" height="84" fill="white"/>
</clipPath>
</defs>
</svg>
